<svg id="logo_chavesbao_blanco" data-name="logo chavesbao blanco" xmlns="http://www.w3.org/2000/svg" width="176.2" height="41.33" viewBox="0 0 176.2 41.33">
  <g id="Grupo_47" data-name="Grupo 47">
    <g id="Grupo_46" data-name="Grupo 46">
      <path id="Trazado_35" data-name="Trazado 35" d="M127.835,16.8h-2.392a.975.975,0,0,0-.73.269,1.153,1.153,0,0,0-.251.841v1.768a2.483,2.483,0,0,1-.185.951,2.388,2.388,0,0,1-.519.786,2.539,2.539,0,0,1-.816.541,2.752,2.752,0,0,1-1.077.2,2.819,2.819,0,0,1-1.091-.2,2.622,2.622,0,0,1-.837-.543,2.437,2.437,0,0,1-.537-.788,2.381,2.381,0,0,1-.193-.946V6.364a2.388,2.388,0,0,1,.736-1.73,2.6,2.6,0,0,1,.844-.536,2.882,2.882,0,0,1,1.077-.2,2.543,2.543,0,0,1,1.032.2,2.389,2.389,0,0,1,.785.543,2.457,2.457,0,0,1,.5.8,2.6,2.6,0,0,1,.178.958V7.833a1.312,1.312,0,0,0,.184.755.921.921,0,0,0,.817.354h2.373a.953.953,0,0,0,.816-.339,1.337,1.337,0,0,0,.2-.823V6.311a6.3,6.3,0,0,0-.456-2.363,6.091,6.091,0,0,0-1.342-2.02A6.46,6.46,0,0,0,124.782.521,7.906,7.906,0,0,0,121.824,0a8.555,8.555,0,0,0-2.862.468,7.147,7.147,0,0,0-2.3,1.313,6.185,6.185,0,0,0-1.532,1.988,5.6,5.6,0,0,0-.557,2.469v13.6a5.624,5.624,0,0,0,.591,2.574,6.087,6.087,0,0,0,1.587,1.971,7.247,7.247,0,0,0,2.307,1.254,8.642,8.642,0,0,0,2.766.44,8.311,8.311,0,0,0,2.719-.441,7,7,0,0,0,2.25-1.257,5.944,5.944,0,0,0,1.527-1.976,5.867,5.867,0,0,0,.556-2.565V17.878a1.036,1.036,0,0,0-.306-.846,1.114,1.114,0,0,0-.735-.228" transform="translate(-81.965 -0.001)" fill="#e4002b"/>
      <path id="Trazado_36" data-name="Trazado 36" d="M187.311,1.306h-2.532a.935.935,0,0,0-.84.4,1.2,1.2,0,0,0-.2.68v9.4h-5.452v-9.4a1.115,1.115,0,0,0-.25-.738.984.984,0,0,0-.791-.337h-2.551a.985.985,0,0,0-.791.337,1.113,1.113,0,0,0-.25.738V25.567a1.133,1.133,0,0,0,.237.742.983.983,0,0,0,.8.332h2.551a.983.983,0,0,0,.8-.33,1.131,1.131,0,0,0,.238-.743V15.694h5.452v9.891a.972.972,0,0,0,1.041,1.056h2.511a.982.982,0,0,0,1.061-1.056V2.362a1.008,1.008,0,0,0-.314-.791,1.067,1.067,0,0,0-.727-.265" transform="translate(-124.23 -0.934)" fill="#e4002b"/>
      <path id="Trazado_37" data-name="Trazado 37" d="M242.658,19.01h-3.634l1.825-8.892Zm.372-16.818a1.042,1.042,0,0,0-.411-.692,1.147,1.147,0,0,0-.661-.194h-2.2a1.144,1.144,0,0,0-.662.194,1.121,1.121,0,0,0-.425.674l-5.533,23.277a.978.978,0,0,0,.077.8.851.851,0,0,0,.77.39h2.551a1.33,1.33,0,0,0,.631-.16.966.966,0,0,0,.481-.689l.641-3.2h5.1l.659,3.2a.952.952,0,0,0,.5.69,1.385,1.385,0,0,0,.632.156h2.551a.82.82,0,0,0,.768-.4.948.948,0,0,0,.064-.751Z" transform="translate(-166.752 -0.935)" fill="#e4002b"/>
      <path id="Trazado_38" data-name="Trazado 38" d="M296.986,1.306h-2.551a1.377,1.377,0,0,0-.632.156.951.951,0,0,0-.5.69l-3.2,15.448L286.9,2.15a.955.955,0,0,0-.48-.684,1.324,1.324,0,0,0-.631-.16h-2.57a.841.841,0,0,0-.75.388.964.964,0,0,0-.081.787L288.012,25.8a1.063,1.063,0,0,0,1.085.839h2.017a1.069,1.069,0,0,0,1.088-.85l5.61-23.306a.975.975,0,0,0-.057-.776.824.824,0,0,0-.768-.4" transform="translate(-201.987 -0.934)" fill="#e4002b"/>
      <path id="Trazado_39" data-name="Trazado 39" d="M356.744,22.929a1.165,1.165,0,0,0-.642-.188h-7.185V15.675H354.6a1.17,1.17,0,0,0,.656-.2.882.882,0,0,0,.385-.787V12.744a.86.86,0,0,0-.4-.788,1.221,1.221,0,0,0-.642-.181h-5.682V5.24h7.165a1.035,1.035,0,0,0,.656-.22.916.916,0,0,0,.326-.765V2.309a.947.947,0,0,0-.315-.766,1.028,1.028,0,0,0-.667-.238H345.365a1.054,1.054,0,0,0-.793.317,1.078,1.078,0,0,0-.287.758V25.566a1.1,1.1,0,0,0,.257.755,1.043,1.043,0,0,0,.823.32H356.1a1.123,1.123,0,0,0,.654-.2.89.89,0,0,0,.367-.782V23.691a.851.851,0,0,0-.379-.762" transform="translate(-246.298 -0.934)" fill="#e4002b"/>
      <path id="Trazado_40" data-name="Trazado 40" d="M408.1,14.592a13.894,13.894,0,0,0-2.114-1.9q-1.187-.876-2.613-1.921l-1.256-.911a8.083,8.083,0,0,1-1.067-.922,4.246,4.246,0,0,1-.745-1.043,2.76,2.76,0,0,1-.27-1.248A2.988,2.988,0,0,1,400.3,5.31a2.482,2.482,0,0,1,.653-.836,2.375,2.375,0,0,1,.846-.439,2.9,2.9,0,0,1,2,.082,2.4,2.4,0,0,1,.793.566,2.491,2.491,0,0,1,.487.812,2.821,2.821,0,0,1,.171.976V7.5a1.318,1.318,0,0,0,.164.706.882.882,0,0,0,.818.369h2.274a1.12,1.12,0,0,0,.867-.295,1.119,1.119,0,0,0,.253-.78V6.453a6.435,6.435,0,0,0-.51-2.576,6.174,6.174,0,0,0-1.426-2.045,6.516,6.516,0,0,0-2.2-1.35A7.983,7.983,0,0,0,402.673,0a7.58,7.58,0,0,0-1.306.131,8.669,8.669,0,0,0-1.5.42,7.5,7.5,0,0,0-1.515.781,5.916,5.916,0,0,0-2.305,2.955,6.615,6.615,0,0,0-.363,2.27,7.152,7.152,0,0,0,.425,2.587,6.848,6.848,0,0,0,1.2,1.993,12.043,12.043,0,0,0,1.847,1.708c.694.528,1.488,1.118,2.357,1.754.762.563,1.417,1.06,1.948,1.477a8.412,8.412,0,0,1,1.249,1.175,3.8,3.8,0,0,1,.667,1.11,3.851,3.851,0,0,1,.21,1.336,2.23,2.23,0,0,1-.213.98,2.469,2.469,0,0,1-.6.781,2.79,2.79,0,0,1-.893.517,3.173,3.173,0,0,1-2.014.044,2.453,2.453,0,0,1-.861-.45,2.49,2.49,0,0,1-.654-.829,2.841,2.841,0,0,1-.26-1.29V18.62a1.137,1.137,0,0,0-.233-.767,1.012,1.012,0,0,0-.808-.307h-2.333a.94.94,0,0,0-.869.389,1.425,1.425,0,0,0-.173.756v.92a6.461,6.461,0,0,0,.52,2.6,6.059,6.059,0,0,0,1.461,2.048,6.752,6.752,0,0,0,2.244,1.337,8.293,8.293,0,0,0,2.866.479,8.207,8.207,0,0,0,2.921-.507,7.414,7.414,0,0,0,2.293-1.356,6.287,6.287,0,0,0,1.509-1.977,5.427,5.427,0,0,0,.547-2.38,7.415,7.415,0,0,0-1.94-5.267" transform="translate(-283.065 -0.001)" fill="#e4002b"/>
      <path id="Trazado_41" data-name="Trazado 41" d="M463.988,16.9a3.1,3.1,0,0,1,.237,1.288v2.123a2.513,2.513,0,0,1-.153.839,2.452,2.452,0,0,1-.463.789,2.34,2.34,0,0,1-.774.578,2.607,2.607,0,0,1-1.128.221h-2.578v-7.3h2.4a3.353,3.353,0,0,1,1,.156,2.433,2.433,0,0,1,.85.47,2.4,2.4,0,0,1,.609.832m-.059-7.182a1.691,1.691,0,0,1-.275,1,2.2,2.2,0,0,1-.717.65,3.068,3.068,0,0,1-.912.34,4.6,4.6,0,0,1-.852.1h-2.044V5.241h2.142a2.967,2.967,0,0,1,1.949.606,2.239,2.239,0,0,1,.709,1.857Zm3.469,4.711a4.622,4.622,0,0,0-1.3-.957l0,0,.063-.038a4.532,4.532,0,0,0,1.109-.961,5.269,5.269,0,0,0,.8-1.312,4.063,4.063,0,0,0,.32-1.6V7.527a6.149,6.149,0,0,0-.523-2.556A5.722,5.722,0,0,0,466.4,3a6.669,6.669,0,0,0-2.194-1.253,8.342,8.342,0,0,0-2.761-.441h-5.616a1.048,1.048,0,0,0-.792.317,1.073,1.073,0,0,0-.288.758V25.567a1.1,1.1,0,0,0,.257.754,1.04,1.04,0,0,0,.823.32H462.1a7.752,7.752,0,0,0,2.573-.424,6.78,6.78,0,0,0,2.148-1.212,5.8,5.8,0,0,0,1.487-1.922,5.708,5.708,0,0,0,.546-2.5V18.422a6.069,6.069,0,0,0-.42-2.38,5.19,5.19,0,0,0-1.039-1.611" transform="translate(-325.326 -0.934)" fill="#e4002b"/>
      <path id="Trazado_42" data-name="Trazado 42" d="M518.017,19.01h-3.634l1.825-8.892Zm.372-16.819a1.043,1.043,0,0,0-.411-.692,1.156,1.156,0,0,0-.661-.194h-2.195a1.151,1.151,0,0,0-.663.194,1.117,1.117,0,0,0-.425.675L508.5,25.451a.972.972,0,0,0,.077.8.849.849,0,0,0,.77.39H511.9a1.319,1.319,0,0,0,.63-.16.959.959,0,0,0,.481-.689l.641-3.2h5.1l.659,3.206a.953.953,0,0,0,.5.689,1.386,1.386,0,0,0,.633.156h2.55a.819.819,0,0,0,.768-.4.951.951,0,0,0,.064-.751Z" transform="translate(-363.741 -0.934)" fill="#e4002b"/>
      <path id="Trazado_43" data-name="Trazado 43" d="M575.372,22.162a2.811,2.811,0,0,1-1.064-.2,2.5,2.5,0,0,1-.814-.524,2.427,2.427,0,0,1-.528-.78,2.4,2.4,0,0,1-.192-.946V6.4a2.473,2.473,0,0,1,.729-1.752,2.609,2.609,0,0,1,.837-.542,2.76,2.76,0,0,1,1.07-.2,2.7,2.7,0,0,1,1.058.2,2.67,2.67,0,0,1,.83.544,2.476,2.476,0,0,1,.729,1.752V19.786a2.269,2.269,0,0,1-.191.923,2.305,2.305,0,0,1-.531.751,2.559,2.559,0,0,1-.833.51,3.06,3.06,0,0,1-1.1.191m6.679-18.5a6.05,6.05,0,0,0-1.6-1.973A7.44,7.44,0,0,0,578.138.439a8.867,8.867,0,0,0-5.512,0,7.3,7.3,0,0,0-2.306,1.255,6.1,6.1,0,0,0-1.587,1.971,5.63,5.63,0,0,0-.591,2.574V19.857a5.524,5.524,0,0,0,.592,2.548,6.123,6.123,0,0,0,1.586,1.962,7.432,7.432,0,0,0,2.293,1.262,8.41,8.41,0,0,0,2.759.449,8.649,8.649,0,0,0,2.766-.439,7.5,7.5,0,0,0,2.313-1.242,5.964,5.964,0,0,0,1.6-1.966,5.618,5.618,0,0,0,.591-2.573V6.239a5.625,5.625,0,0,0-.591-2.574" transform="translate(-406.443)" fill="#e4002b"/>
      <path id="Trazado_44" data-name="Trazado 44" d="M11.213,48.748H.7A.7.7,0,0,0,0,49.5,11.893,11.893,0,0,0,11.16,60.573a.7.7,0,0,0,.751-.694V49.442a.7.7,0,0,0-.7-.694" transform="translate(0 -34.874)" fill="#e4002b"/>
      <path id="Trazado_45" data-name="Trazado 45" d="M48.3,60.589H58.813a.7.7,0,0,0,.7-.744A11.892,11.892,0,0,0,48.349,48.764a.7.7,0,0,0-.749.692V59.9a.693.693,0,0,0,.7.691" transform="translate(-34.053 -34.885)" fill="#e4002b"/>
      <path id="Trazado_46" data-name="Trazado 46" d="M47.6,2.075v10.4a.72.72,0,0,0,.773.712A11.891,11.891,0,0,0,59.509,2.13a.72.72,0,0,0-.718-.767H48.319a.715.715,0,0,0-.718.712" transform="translate(-34.053 -0.975)" fill="#e4002b"/>
      <path id="Trazado_47" data-name="Trazado 47" d="M11.195,13.179H.729a.722.722,0,0,1-.721-.771A11.891,11.891,0,0,1,11.139,1.356a.724.724,0,0,1,.776.716V12.464a.719.719,0,0,1-.721.716" transform="translate(-0.005 -0.969)" fill="#e4002b"/>
      <path id="Trazado_48" data-name="Trazado 48" d="M344.676,110.191v1.976q0,.759-.035,1.493c-.015.491-.035.973-.058,1.448q.555-.022,1.065-.023h2.14q.533,0,1.066.023a1.063,1.063,0,0,1-.058-.31,1.321,1.321,0,0,1,.058-.344,16.115,16.115,0,0,1-1.62.137q-.753.012-1.574.012-.011-.837-.023-1.9t-.012-2.516q0-.758.023-1.482c.023-.491.046-.988.07-1.495-.1.017-.2.032-.29.046s-.185.012-.277.012-.185,0-.278-.012l-.289-.046c.023.507.044,1,.058,1.495s.035.976.035,1.482" transform="translate(-246.511 -76.7)"/>
      <path id="Trazado_49" data-name="Trazado 49" d="M363.528,118.232a3.3,3.3,0,0,0,.242,1.333,2.61,2.61,0,0,0,.659.885,2.427,2.427,0,0,0,.9.472,3.873,3.873,0,0,0,1.008.137,3.793,3.793,0,0,0,1.007-.137,2.421,2.421,0,0,0,.9-.472,2.5,2.5,0,0,0,.647-.885,3.156,3.156,0,0,0,.255-1.333,3.073,3.073,0,0,0-.255-1.321,2.368,2.368,0,0,0-.647-.885,2.5,2.5,0,0,0-.9-.495,3.274,3.274,0,0,0-1.007-.16,3.343,3.343,0,0,0-1.008.16,2.507,2.507,0,0,0-.9.495,2.465,2.465,0,0,0-.659.885,3.209,3.209,0,0,0-.242,1.321m1.018,0a5.184,5.184,0,0,1,.081-.93,2.461,2.461,0,0,1,.3-.792,1.543,1.543,0,0,1,.555-.565,1.879,1.879,0,0,1,1.712,0,1.549,1.549,0,0,1,.555.565,2.294,2.294,0,0,1,.289.792,4.653,4.653,0,0,1,0,1.86,2.44,2.44,0,0,1-.289.8,1.574,1.574,0,0,1-.555.552,1.879,1.879,0,0,1-1.712,0,1.567,1.567,0,0,1-.555-.552,2.626,2.626,0,0,1-.3-.8,5.171,5.171,0,0,1-.081-.93" transform="translate(-260.064 -82.536)"/>
      <path id="Trazado_50" data-name="Trazado 50" d="M393.268,117.714v.7q0,.667-.035,1.3c-.015.421-.03.832-.046,1.23.155-.015.313-.023.474-.023s.332.008.487.023c-.008-.108-.017-.218-.024-.333v-1.115q0-.586.024-1.1t.023-1.024a2.354,2.354,0,0,0-.174-.977,1.531,1.531,0,0,0-1.029-.929,2.356,2.356,0,0,0-.648-.093,2.027,2.027,0,0,0-1.076.276,2.356,2.356,0,0,0-.776.758h-.023c0-.307.013-.612.035-.918-.1.014-.188.03-.265.045a1.877,1.877,0,0,1-.2.011,3.169,3.169,0,0,1-.521-.056,10.631,10.631,0,0,1,.069,1.068c.017.375.024.735.024,1.08v1.195c0,.345-.007.708-.024,1.091a9.418,9.418,0,0,1-.069,1.023c.178-.015.351-.023.521-.023s.343.008.52.023c-.038-.306-.065-.647-.08-1.023s-.013-.746-.013-1.091v-.975a2.285,2.285,0,0,1,.37-1.391,1.412,1.412,0,0,1,1.193-.495,1.087,1.087,0,0,1,.924.449,2.1,2.1,0,0,1,.336,1.3" transform="translate(-278.641 -82.534)"/>
      <path id="Trazado_51" data-name="Trazado 51" d="M413.08,110.368l-.961.4c.016.244.023.483.023.712s.016.422.023.574q-.243,0-.763-.034a.611.611,0,0,1,.012.115.6.6,0,0,1,.011.114.862.862,0,0,1-.011.138.806.806,0,0,1-.012.126c.077-.007.151-.011.22-.011a1.642,1.642,0,0,1,.2-.011h.371q0,.643-.012,1.172c-.008.344-.019.662-.035.953s-.015.547-.023.792-.011.46-.011.666a1.243,1.243,0,0,0,1.423,1.4,1.85,1.85,0,0,0,.451-.057l.439-.08v-.275a2.108,2.108,0,0,1-.277.057,1.613,1.613,0,0,1-.243.022.832.832,0,0,1-.533-.149.908.908,0,0,1-.277-.39,2.088,2.088,0,0,1-.116-.562c-.007-.207-.011-.417-.011-.633v-.862c.006-.321.015-.627.022-.917s.016-.556.024-.772.026-.336.034-.367h.568c.123,0,.239,0,.347.011s.212,0,.313.011a.353.353,0,0,1-.013-.113v-.242a.41.41,0,0,1,.013-.126c-.271.015-.521.027-.753.034h-.475c.016-.283.028-.564.035-.838s.035-.571.057-.862Z" transform="translate(-294.313 -78.956)"/>
      <path id="Trazado_52" data-name="Trazado 52" d="M427.666,116.038v.6h.127a1.367,1.367,0,0,1,.59-.575,1.877,1.877,0,0,1,.867-.206,1.248,1.248,0,0,1,.59.127,1.044,1.044,0,0,1,.393.309,1.273,1.273,0,0,1,.22.461,2.13,2.13,0,0,1,.069.552,1.013,1.013,0,0,1-.034.286.364.364,0,0,1-.209.184,2.535,2.535,0,0,1-.52.161c-.231.046-.556.1-.971.172a2.411,2.411,0,0,0-1.2.5,1.522,1.522,0,0,0-.3,1.666,1.636,1.636,0,0,0,.347.437,1.35,1.35,0,0,0,.5.264,2.037,2.037,0,0,0,.568.08,2.28,2.28,0,0,0,.994-.194,3.135,3.135,0,0,0,.823-.61.715.715,0,0,0,.8.678,2.269,2.269,0,0,0,.416-.034,1.463,1.463,0,0,0,.325-.092v-.252a.368.368,0,0,1-.127.046h-.116a.39.39,0,0,1-.266-.081.568.568,0,0,1-.128-.2,1,1,0,0,1-.057-.275v-.3q0-.725.023-1.368c.015-.437.024-.873.024-1.31a1.663,1.663,0,0,0-.14-.689,1.523,1.523,0,0,0-.381-.54,1.555,1.555,0,0,0-.59-.344,2.206,2.206,0,0,0-.764-.127,3.02,3.02,0,0,0-.9.138,3.265,3.265,0,0,0-.961.529m2.858,2.045-.046,1.723a1.809,1.809,0,0,1-.567.563,1.4,1.4,0,0,1-.8.241,1.009,1.009,0,0,1-1.006-1.091,1.079,1.079,0,0,1,.115-.529,1.171,1.171,0,0,1,.324-.344,1.863,1.863,0,0,1,.463-.219,4.6,4.6,0,0,1,.532-.125c.177-.039.352-.074.521-.1a3.068,3.068,0,0,0,.463-.115" transform="translate(-305.583 -82.534)"/>
      <path id="Trazado_53" data-name="Trazado 53" d="M454.737,117.714v.7q0,.667-.035,1.3c-.015.421-.031.832-.047,1.23.155-.015.313-.023.475-.023s.332.008.486.023c-.007-.108-.016-.218-.023-.333v-1.115q0-.586.023-1.1c.015-.353.023-.694.023-1.024a2.355,2.355,0,0,0-.174-.977,1.532,1.532,0,0,0-1.03-.929,2.343,2.343,0,0,0-.647-.093,2.03,2.03,0,0,0-1.076.276,2.352,2.352,0,0,0-.774.758h-.024c0-.307.011-.612.035-.918-.1.014-.189.03-.266.045a1.871,1.871,0,0,1-.2.011,3.157,3.157,0,0,1-.52-.056q.058.493.069,1.068t.023,1.08v1.195c0,.345-.007.708-.023,1.091a9.728,9.728,0,0,1-.069,1.023c.177-.015.351-.023.52-.023s.344.008.521.023c-.039-.306-.065-.647-.082-1.023s-.011-.746-.011-1.091v-.975a2.273,2.273,0,0,1,.37-1.391,1.412,1.412,0,0,1,1.192-.495,1.09,1.09,0,0,1,.926.449,2.1,2.1,0,0,1,.336,1.3" transform="translate(-322.615 -82.534)"/>
      <path id="Trazado_54" data-name="Trazado 54" d="M473.66,116.038v.6h.127a1.368,1.368,0,0,1,.59-.575,1.88,1.88,0,0,1,.867-.206,1.242,1.242,0,0,1,.589.127,1.035,1.035,0,0,1,.394.309,1.289,1.289,0,0,1,.22.461,2.169,2.169,0,0,1,.069.552,1.014,1.014,0,0,1-.034.286.362.362,0,0,1-.209.184,2.545,2.545,0,0,1-.521.161c-.231.046-.556.1-.971.172a2.409,2.409,0,0,0-1.2.5,1.52,1.52,0,0,0-.3,1.666,1.59,1.59,0,0,0,.348.437,1.339,1.339,0,0,0,.5.264,2.039,2.039,0,0,0,.568.08,2.279,2.279,0,0,0,.994-.194,3.116,3.116,0,0,0,.823-.61.717.717,0,0,0,.8.678,2.283,2.283,0,0,0,.416-.034,1.482,1.482,0,0,0,.324-.092v-.252a.381.381,0,0,1-.127.046H477.8a.388.388,0,0,1-.265-.081.564.564,0,0,1-.128-.2,1.061,1.061,0,0,1-.058-.275v-.3q0-.725.024-1.368t.023-1.31a1.694,1.694,0,0,0-.138-.689,1.589,1.589,0,0,0-.973-.884,2.206,2.206,0,0,0-.764-.127,3.034,3.034,0,0,0-.9.138,3.262,3.262,0,0,0-.96.529m2.858,2.045-.046,1.723a1.8,1.8,0,0,1-.567.563,1.4,1.4,0,0,1-.8.241,1.011,1.011,0,0,1-1.008-1.091,1.07,1.07,0,0,1,.116-.529,1.156,1.156,0,0,1,.323-.344,1.887,1.887,0,0,1,.464-.219,4.547,4.547,0,0,1,.531-.125c.178-.039.351-.074.521-.1a3.1,3.1,0,0,0,.462-.115" transform="translate(-338.487 -82.534)"/>
      <path id="Trazado_55" data-name="Trazado 55" d="M502.262,110.83a3.692,3.692,0,0,1,2.554-3.755,6.42,6.42,0,0,1,4.879.335l-.241.891h-.137a3.662,3.662,0,0,0-1.008-.772,3.382,3.382,0,0,0-1.609-.336,3.846,3.846,0,0,0-1.288.226,2.9,2.9,0,0,0-1.053.669,3.09,3.09,0,0,0-.71,1.147,4.706,4.706,0,0,0-.255,1.62,4.192,4.192,0,0,0,.421,1.943,2.884,2.884,0,0,0,1.2,1.238,4.244,4.244,0,0,0,3.625.034v-2.941l.258.014c.112.005.2.013.261.02.032,0,.2-.015.493-.034v3.239q-.942.278-1.573.4a9.537,9.537,0,0,1-1.548.139,4.895,4.895,0,0,1-2.338-.517,3.423,3.423,0,0,1-1.45-1.425,4.38,4.38,0,0,1-.491-2.064.341.341,0,0,0,.009-.045.2.2,0,0,0,0-.025" transform="translate(-359.304 -76.365)"/>
      <path id="Trazado_56" data-name="Trazado 56" d="M536.512,121.01v-5.481a1.974,1.974,0,0,1,.405.048c.295-.031.467-.048.519-.048v1.146a2.8,2.8,0,0,1,.627-.822,1.285,1.285,0,0,1,.883-.379,1.683,1.683,0,0,1,.357.033l-.152.961a.924.924,0,0,0-.54-.171,1,1,0,0,0-.879.43,1.837,1.837,0,0,0-.3,1.068v3.215a1.523,1.523,0,0,0-.473-.067,1.463,1.463,0,0,0-.45.067" transform="translate(-383.815 -82.608)"/>
      <path id="Trazado_57" data-name="Trazado 57" d="M551.846,118.33a3.958,3.958,0,0,0,.141,1.036,1.986,1.986,0,0,0,.536.908,1.521,1.521,0,0,0,1.073.4,1.488,1.488,0,0,0,.947-.333,2.174,2.174,0,0,0,.653-.9,3.2,3.2,0,0,0,.234-1.238,3.994,3.994,0,0,0-.091-.837,2.962,2.962,0,0,0-.287-.788,1.707,1.707,0,0,0-.517-.594,1.339,1.339,0,0,0-.776-.239,1.646,1.646,0,0,0-1.082.355,2.012,2.012,0,0,0-.632.941,4.011,4.011,0,0,0-.2,1.287m-1.014.025a3.144,3.144,0,0,1,.379-1.558,2.641,2.641,0,0,1,1.03-1.042,2.88,2.88,0,0,1,1.427-.365,2.955,2.955,0,0,1,1.127.21,2.555,2.555,0,0,1,.879.589,2.6,2.6,0,0,1,.56.89,3.077,3.077,0,0,1,.03,2.088,2.9,2.9,0,0,1-.515.925,2.556,2.556,0,0,1-.9.688,3.008,3.008,0,0,1-1.3.264h-.011a2.949,2.949,0,0,1-1.394-.341,2.384,2.384,0,0,1-.939-.938,3.141,3.141,0,0,1-.374-1.41" transform="translate(-394.059 -82.549)"/>
      <path id="Trazado_58" data-name="Trazado 58" d="M576.72,119.205v-3.537c.1.014.187.021.256.028s.124.012.169.019.133-.014.218-.021.18-.016.279-.026v3.226a2.323,2.323,0,0,0,.326,1.281,1.2,1.2,0,0,0,1.09.5,1.151,1.151,0,0,0,1.1-.544,2.558,2.558,0,0,0,.3-1.262v-3.2a3.084,3.084,0,0,1,.425.048c.249-.031.414-.048.5-.048v5.481c-.056-.006-.135-.014-.238-.021s-.182-.017-.238-.025c-.048.008-.122.017-.219.025s-.172.016-.229.021v-.984a2.047,2.047,0,0,1-.729.785,2.322,2.322,0,0,1-1.077.292,1.626,1.626,0,0,1-1.555-.681,2.739,2.739,0,0,1-.382-1.355" transform="translate(-412.579 -82.748)"/>
      <path id="Trazado_59" data-name="Trazado 59" d="M601.4,118.388a4.037,4.037,0,0,0,.116.945,1.894,1.894,0,0,0,.495.884,1.431,1.431,0,0,0,1.084.392,1.33,1.33,0,0,0,.86-.285,1.728,1.728,0,0,0,.536-.842,4.387,4.387,0,0,0,.183-1.358,4.057,4.057,0,0,0-.149-1.144,1.694,1.694,0,0,0-.5-.821,1.354,1.354,0,0,0-.928-.312,1.442,1.442,0,0,0-.875.282,1.834,1.834,0,0,0-.6.852,3.935,3.935,0,0,0-.217,1.407m-.924-2.861a2.293,2.293,0,0,1,.394.047c.275-.03.452-.047.529-.047v1.146h.022a1.942,1.942,0,0,1,1.961-1.2,2.376,2.376,0,0,1,1.069.254,2.085,2.085,0,0,1,.863.844,3.148,3.148,0,0,1,.373,1.534,4.042,4.042,0,0,1-.151,1.1,3.124,3.124,0,0,1-.456.959,2.255,2.255,0,0,1-.768.681,2.165,2.165,0,0,1-1.06.254,2,2,0,0,1-1.076-.3,2.1,2.1,0,0,1-.755-.825H601.4v3.957c-.055-.005-.141-.011-.258-.018s-.2-.017-.25-.025c-.05.007-.118.014-.206.022s-.159.015-.21.021Z" transform="translate(-429.574 -82.607)"/>
    </g>
  </g>
</svg>
