<svg id="simbolo-chavesbao--m" xmlns="http://www.w3.org/2000/svg" width="147.614" height="146.809" viewBox="0 0 147.614 146.809">
  <path id="Trazado_62" data-name="Trazado 62" d="M65.015,48.748H4.061A4.068,4.068,0,0,0,.008,53.08c2.162,34.489,29.957,62.086,64.7,64.233a4.07,4.07,0,0,0,4.357-4.022V52.77a4.034,4.034,0,0,0-4.048-4.022" transform="translate(0 29.466)" fill="#fff"/>
  <path id="Trazado_63" data-name="Trazado 63" d="M51.632,117.335h60.987a4.055,4.055,0,0,0,4.037-4.314,68.955,68.955,0,0,0-64.713-64.25,4.052,4.052,0,0,0-4.342,4.01V113.33a4.019,4.019,0,0,0,4.032,4.005" transform="translate(30.951 29.474)" fill="#fff"/>
  <path id="Trazado_64" data-name="Trazado 64" d="M47.6,5.49v60.3a4.174,4.174,0,0,0,4.48,4.127c34.64-2.195,62.353-29.711,64.564-64.1a4.175,4.175,0,0,0-4.16-4.449H51.761A4.145,4.145,0,0,0,47.6,5.49" transform="translate(30.952 -1.348)" fill="#fff"/>
  <path id="Trazado_65" data-name="Trazado 65" d="M64.879,69.917H4.2a4.187,4.187,0,0,1-4.18-4.469A68.947,68.947,0,0,1,64.557,1.363a4.2,4.2,0,0,1,4.5,4.154V65.769a4.167,4.167,0,0,1-4.18,4.149" transform="translate(0.003 -1.355)" fill="#fff"/>
</svg>
