<svg xmlns="http://www.w3.org/2000/svg" width="195.064" height="194" viewBox="0 0 195.064 194">
  <g id="simbolo-chavesbao" transform="translate(-1627.479 -6661)">
    <path id="Trazado_62" data-name="Trazado 62" d="M85.914,48.748H5.367A5.375,5.375,0,0,0,.011,54.472c2.857,45.575,39.587,82.044,85.5,84.881a5.379,5.379,0,0,0,5.757-5.314V54.062a5.33,5.33,0,0,0-5.349-5.314" transform="translate(1627.479 6715.608)" fill="#fff"/>
    <path id="Trazado_63" data-name="Trazado 63" d="M52.927,139.377h80.591a5.358,5.358,0,0,0,5.334-5.7C136,88.077,99.259,51.6,53.337,48.774a5.355,5.355,0,0,0-5.737,5.3v80.012a5.311,5.311,0,0,0,5.327,5.293" transform="translate(1683.681 6715.623)" fill="#fff"/>
    <path id="Trazado_64" data-name="Trazado 64" d="M47.6,6.817V86.5a5.515,5.515,0,0,0,5.921,5.454c45.775-2.9,82.4-39.262,85.318-84.711a5.517,5.517,0,0,0-5.5-5.879H53.1a5.477,5.477,0,0,0-5.5,5.454" transform="translate(1683.682 6659.657)" fill="#fff"/>
    <path id="Trazado_65" data-name="Trazado 65" d="M85.732,91.957H5.542A5.533,5.533,0,0,1,.019,86.051C2.954,40.622,39.546,4.28,85.307,1.366a5.55,5.55,0,0,1,5.949,5.489V86.474a5.506,5.506,0,0,1-5.524,5.482" transform="translate(1627.484 6659.646)" fill="#fff"/>
  </g>
</svg>
